# xmcd CD database file
#
# Track frame offsets:
#	150
#	23543
#	42923
#	60561
#	83984
#	104544
#	116945
#	137689
#	159179
#	181291
#	202671
#	225134
#	240511
#	261356
#	284293
#	312094
#
# Disc length: 4205 seconds
#
# Revision: 0
# Processed by: cddbd v1.5.2PL0 Copyright (c) Steve Scherf et al.
# Submitted via: CDex 1.70beta2
#
DISCID=c8106b10
DTITLE=Giuffre, Jimmy - Fusion_Thesis
DYEAR=1961
DGENRE=Jazz
TTITLE0=Cry, Want
TTITLE1=Brief hesitation
TTITLE2=Venture
TTITLE3=Afternoon
TTITLE4=Trudgin'
TTITLE5=Ictus
TTITLE6=Carla
TTITLE7=Sonic
TTITLE8=Whrrrr
TTITLE9=That's True, That's True
TTITLE10=Goodbye
TTITLE11=Flight
TTITLE12=The Gament
TTITLE13=Me Too
TTITLE14=Temporarily
TTITLE15=Herb and Ictus
EXTD=YEAR: 1961
EXTT0=
EXTT1=
EXTT2=
EXTT3=
EXTT4=
EXTT5=
EXTT6=
EXTT7=
EXTT8=
EXTT9=
EXTT10=
EXTT11=
EXTT12=
EXTT13=
EXTT14=
EXTT15=
PLAYORDER=
